HIERARCHY
ROOT Hips
{
  OFFSET -31.5692 30.0904 122.763
  CHANNELS 6 Xposition Yposition Zposition Zrotation Xrotation Yrotation
  JOINT LeftUpLeg
  {
    OFFSET 8.64259 1.95398 -2.38835
    CHANNELS 3 Zrotation Xrotation Yrotation
    JOINT LeftLeg
    {
      OFFSET 43.7702 0 0
      CHANNELS 3 Zrotation Xrotation Yrotation
      JOINT LeftFoot
      {
        OFFSET 40.6238 0 0
        CHANNELS 3 Zrotation Xrotation Yrotation
        JOINT LeftToeBase
        {
          OFFSET 12.7242 0 0
          CHANNELS 3 Zrotation Xrotation Yrotation
          End Site
          {
            OFFSET 0 0 0
          }
        }
      }
    }
  }
  JOINT RightUpLeg
  {
    OFFSET -8.2249 1.95398 -2.59336
    CHANNELS 3 Zrotation Xrotation Yrotation
    JOINT RightLeg
    {
      OFFSET 43.5653 0 0
      CHANNELS 3 Zrotation Xrotation Yrotation
      JOINT RightFoot
      {
        OFFSET 40.6238 0 0
        CHANNELS 3 Zrotation Xrotation Yrotation
        JOINT RightToeBase
        {
          OFFSET 12.7242 0 0
          CHANNELS 3 Zrotation Xrotation Yrotation
          End Site
          {
            OFFSET 0 0 0
          }
        }
      }
    }
  }
  JOINT Spine
  {
    OFFSET 0.165834 0.87714 6.61349
    CHANNELS 3 Zrotation Xrotation Yrotation
    JOINT Spine1
    {
      OFFSET 7.38963 1.71661e-005 0
      CHANNELS 3 Zrotation Xrotation Yrotation
      JOINT Spine2
      {
        OFFSET 11.9445 1.14441e-005 0
        CHANNELS 3 Zrotation Xrotation Yrotation
        JOINT Spine3
        {
          OFFSET 14.7254 4.19617e-005 0
          CHANNELS 3 Zrotation Xrotation Yrotation
          JOINT Spine4
          {
            OFFSET 10.9679 0 0
            CHANNELS 3 Zrotation Xrotation Yrotation
            JOINT RightShoulder
            {
              OFFSET 2.46616 -1.6653 3.69651
              CHANNELS 3 Zrotation Xrotation Yrotation
              JOINT RightArm
              {
                OFFSET 13.0012 0 0
                CHANNELS 3 Zrotation Xrotation Yrotation
                JOINT RightForeArm
                {
                  OFFSET 28.7848 1.62311e-005 0
                  CHANNELS 3 Zrotation Xrotation Yrotation
                  JOINT RightHand
                  {
                    OFFSET 26.5688 1.62095e-005 0
                    CHANNELS 3 Zrotation Xrotation Yrotation
                    End Site
                    {
                      OFFSET 0 0 0
                    }
                  }
                }
              }
            }
            JOINT LeftShoulder
            {
              OFFSET 2.38034 -1.29275 -3.7523
              CHANNELS 3 Zrotation Xrotation Yrotation
              JOINT LeftArm
              {
                OFFSET 16.3182 6.07031e-005 0
                CHANNELS 3 Zrotation Xrotation Yrotation
                JOINT LeftForeArm
                {
                  OFFSET 27.0901 0 0
                  CHANNELS 3 Zrotation Xrotation Yrotation
                  JOINT LeftHand
                  {
                    OFFSET 24.5451 1.51738e-005 0
                    CHANNELS 3 Zrotation Xrotation Yrotation
                    End Site
                    {
                      OFFSET 0 0 0
                    }
                  }
                }
              }
            }
            JOINT Neck
            {
              OFFSET 5.0226 -0.0266342 0
              CHANNELS 3 Zrotation Xrotation Yrotation
              JOINT Head
              {
                OFFSET 6.69364 2.86102e-005 0
                CHANNELS 3 Zrotation Xrotation Yrotation
                End Site
                {
                  OFFSET 0 0 0
                }
              }
            }
          }
        }
      }
    }
  }
}
MOTION
Frames:	18
Frame Time:	0.0416667
-330.096 85.2839 -286.074 85.955 4.68778 94.8469 -169.492 4.08359 111.497 -47.5487 45.8197 10.1421 99.6172 27.2721 -2.63357 32.7536 0.373549 5.09203 159.415 54.7508 84.7392 -105.735 -15.4559 -2.20546 88.9213 -26.168 -10.196 18.8942 6.51059 -5.63312 -4.65971 4.9079 -89.6816 17.2143 -9.01136 2.2504 5.57214 -8.90352 2.6477 -17.2166 -9.26753 -0.585456 2.79601 -9.26754 -0.585466 112.397 3.21026 -38.9361 -9.61204 -29.7689 1.28628 -135.442 -20.9177 179.977 -2.66646 -1.22252 -54.8513 -51.6803 -51.5984 135.29 76.4034 55.4457 -100.129 -95.3234 26.6253 -123.357 -63.838 -22.2554 23.2162 -6.32371 25.5894 9.02138 101.018 23.9563 2.84996 
-326.311 89.5423 -282.959 84.7226 -2.66877 96.0636 -161.378 -6.01798 114.463 -21.3752 46.1757 4.20567 83.4732 18.2388 0.660064 40.1364 3.76657 6.86448 165.139 47.6528 93.5073 -100.267 -8.69158 -1.60261 88.9935 -22.4999 -11.1412 20.9035 5.16061 -4.81311 -3.98414 4.87085 -90.4044 17.2077 -8.05337 0.614455 5.56154 -8.01851 0.970606 -17.1687 -7.86327 -1.84984 2.84396 -7.86327 -1.84984 110.544 5.69128 -42.9462 -9.87201 -34.0291 8.95068 -135.004 -23.3851 179.88 -0.36585 -1.91415 -58.3788 -52.9153 -52.2111 133.318 70.2165 39.4274 -95.0952 26.5322 -24.9718 -75.6674 10.2531 4.12892 -112.284 -8.06103 26.6448 11.6807 96.3087 23.8954 2.0367 
-322.131 90.434 -279.34 83.6391 -13.6275 95.7847 -156.047 -14.7821 114.678 -6.69851 39.4166 0.634166 71.1528 10.4924 1.61377 48.7783 8.16439 7.19998 169.022 45.4799 101.282 -100.572 -1.37365 -2.6333 88.9139 -17.7892 -9.73063 23.7211 2.69258 -1.12252 -2.99248 4.97523 -91.28 16.9138 -6.55317 -1.45111 5.25896 -6.61066 -1.16008 -17.3799 -5.81325 -3.35918 2.63273 -5.81325 -3.35919 108.901 8.31236 -46.7192 -6.63899 -37.7203 18.3382 -133.819 -38.6024 -178.119 2.75213 -3.93993 -58.8646 -54.4399 -53.3468 130.759 60.7887 25.3204 -90.0971 38.441 -17.6567 -67.4356 32.7279 -22.119 -59.7903 -8.28551 25.3399 19.9686 88.1209 17.1408 -2.30822 
-317.077 90.7807 -275.693 81.2386 -25.3471 93.8256 -158.687 -18.5099 109.066 -8.61902 29.4463 0.434974 61.5354 4.26769 4.28628 56.1693 11.8643 7.10635 178.254 52.7535 101.221 -97.329 3.25149 -3.89986 85.6144 -13.3687 -6.29154 20.99 2.14465 5.36355 -1.96361 4.99199 -92.1453 16.8153 -4.96847 -3.47991 5.1498 -5.11676 -3.25768 -17.395 -3.69408 -4.81151 2.61763 -3.69411 -4.81151 106.93 12.7496 -50.4029 -0.018194 -40.2164 27.6079 -129.326 -42.9218 -168.666 12.2949 -8.77016 -65.6318 -57.1219 -52.1025 127.373 51.8 17.0559 -87.6043 33.6528 -13.2138 -68.1403 29.3126 -19.7076 -63.5803 -4.73753 22.3074 34.0593 70.2886 3.52922 -16.1041 
-311.062 91.4747 -271.588 76.3027 -34.9544 90.0412 -165.718 -20.8629 100.147 -8.75936 16.0862 1.74861 53.2347 -2.61256 2.17799 40.1832 4.85927 1.76639 -170.154 60.7492 95.7364 -88.1534 -0.709642 -5.44031 82.8914 -12.7648 -5.39114 19.7139 2.58397 5.78994 -1.1555 4.72953 -92.7393 17.3148 -3.68893 -4.88439 5.64056 -3.90009 -4.71766 -16.8373 -2.05325 -5.76463 3.17538 -2.05326 -5.76464 104.994 17.8877 -54.8792 7.11888 -40.795 35.9329 -107.822 -59.2148 -147.885 61.0245 -41.9247 -73.6156 -63.4344 -40.5435 121.335 37.5218 15.3319 -89.2975 31.0022 -6.93132 -66.3402 29.4996 -20.6253 -64.8137 4.77478 22.1013 44.0477 33.8809 0.294106 -36.6632 
-304.618 92.4132 -266.571 71.9267 -40.3055 88.7359 -169.334 -22.0446 96.2372 -7.9632 9.72989 3.62319 50.565 -5.37893 0.846876 15.6673 -6.6105 0.33506 -166.594 64.042 95.573 -76.1247 -7.53417 -5.99503 79.6757 -12.1177 -6.43837 19.6917 2.49595 6.12298 -0.788974 4.59665 -93.4233 17.5503 -3.3269 -6.33126 5.8689 -3.60181 -6.17943 -16.5503 -1.27568 -7.03483 3.46231 -1.27569 -7.03483 103.49 22.7164 -59.9365 15.399 -40.1677 44.2688 44.65 23.9807 -35.5212 130.305 47.3862 20.1038 -72.3959 -22.1242 108.92 12.5049 16.4219 -87.156 32.3919 4.95732 -62.2476 32.7144 -22.0359 -61.5103 19.2917 26.7873 45.8615 -7.39127 12.9732 -41.5188 
-298.004 92.8471 -261.396 70.3971 -42.1992 89.0888 -169.208 -24.7086 95.851 -7.94266 5.06085 3.5538 52.8385 -3.33715 -0.461375 12.6496 -10.902 5.40232 -168.133 63.5525 97.1054 -63.5497 -12.6498 -5.22145 77.3844 -11.2246 -5.4313 20.2216 1.96021 7.24424 -0.869723 4.66699 -93.9593 17.3592 -3.75685 -7.3426 5.67391 -4.07552 -7.17128 -16.704 -1.38476 -8.12685 3.3087 -1.38479 -8.12686 102.97 24.034 -65.9025 22.4819 -38.9927 53.8562 55.2455 38.8447 -43.0432 116.331 58.563 34.453 -76.9009 -21.7901 98.6639 9.64661 10.6828 -79.3436 31.8359 8.8205 -59.453 32.2272 -22.5986 -63.1659 29.9839 30.0029 42.8234 -31.8381 19.1409 -30.963 
-291.667 92.7726 -256.311 70.0195 -43.3662 88.3131 -169.166 -27.513 94.4015 -9.76717 2.7872 1.75497 52.2123 -2.27814 -0.541004 15.2635 -8.31595 3.23356 -170.718 61.5541 97.8764 -52.0634 -18.0016 -3.88893 76.1924 -10.8708 -4.2445 19.5515 2.38679 6.70522 -0.880256 4.9692 -93.9884 16.7552 -3.77499 -7.41398 5.06951 -4.09678 -7.24182 -17.3052 -1.38082 -8.20026 2.7074 -1.38083 -8.20027 103.012 20.5239 -72.3583 29.8221 -34.3013 64.0524 62.2401 41.9704 -51.0203 117.829 61.9078 36.0065 -84.7838 -18.1749 80.3766 3.19725 5.04503 -66.1811 38.3237 16.4337 -55.6441 43.0174 -31.0324 -63.205 34.4516 28.3787 37.2971 -38.6691 16.9354 -21.1917 
-285.469 92.5928 -251.326 70.5568 -44.1148 87.6025 -168.985 -25.5078 92.6657 -22.3274 5.01294 0.150985 52.1916 -3.6359 -0.986662 8.72421 -6.96457 -5.57419 -173.94 57.8465 98.7024 -40.5709 -22.7539 -1.92911 72.826 -9.19661 -4.54685 22.0954 1.38377 6.56949 -0.96015 5.32483 -93.8039 16.0548 -3.81887 -7.05377 4.37128 -4.12489 -6.87991 -18.0211 -1.5299 -7.87019 1.99159 -1.52991 -7.87019 102.879 14.6685 -77.3007 35.6896 -28.0034 69.8706 64.5307 41.0821 -57.4227 121.81 60.738 32.0616 -90.9542 -23.7557 68.9719 11.5062 3.78025 -56.7022 39.3847 19.1827 -55.2518 42.3077 -31.0991 -64.1281 31.4823 26.2053 36.2873 -33.547 14.6914 -18.5761 
-279.244 92.4404 -246.302 72.2316 -44.9456 87.6504 -167.736 -22.303 91.4802 -38.4233 11.0948 -1.32449 52.4939 -5.04145 -0.0401633 8.89718 -3.35086 -12.0515 -177.354 53.1033 100.019 -32.0031 -20.8602 0.487353 71.6832 -8.10761 -2.39152 22.946 1.22732 5.82837 -1.04472 5.8511 -93.5275 15.0186 -3.8196 -6.5273 3.33775 -4.1026 -6.35369 -19.0782 -1.68747 -7.36886 0.934415 -1.68744 -7.36886 102.329 6.56152 -81.7741 39.5093 -20.3076 71.1219 63.9113 38.7075 -63.3565 131.371 56.9593 23.0255 -90.6448 -23.9041 69.6761 10.3251 7.51324 -56.8056 34.7298 16.269 -54.2456 29.4245 -22.5916 -66.7464 26.8774 23.6107 35.3145 -24.5627 12.4102 -16.6738 
-273.092 92.1808 -241.245 74.7018 -45.8299 88.4765 -165.108 -18.719 91.4509 -54.4645 19.5023 -2.79906 53.4127 -5.33547 2.40172 14.7979 -4.79635 -4.32484 179.671 48.0242 101.288 -27.4687 -13.1513 2.62111 70.9736 -7.33661 -1.08793 22.7727 1.33205 5.69653 -1.10642 6.55306 -93.1421 13.6409 -3.71916 -5.80626 1.96306 -3.97069 -5.63755 -20.4817 -1.80663 -6.65191 -0.469007 -1.80662 -6.65191 101.254 -2.29726 -85.0506 42.3644 -12.3694 67.0156 73.0361 39.3081 -76.7391 131.962 59.4068 23.5469 -91.2493 -24.8211 68.8402 9.91016 11.6782 -54.9214 28.1635 12.552 -54.0463 27.8458 -18.1794 -60.087 28.4362 22.2253 30.5312 -20.2842 11.5362 -14.1078 
-266.969 91.8616 -236.253 78.0241 -46.1947 89.6464 -161.636 -14.8461 91.9886 -70.5536 21.8247 -3.05853 52.077 -6.64198 3.8058 11.9479 -4.4829 -7.62034 176.851 43.7233 100.988 -28.4812 -3.68003 4.26982 70.0003 -5.55082 2.10391 24.5197 0.599103 5.74011 -1.23337 7.32979 -92.684 12.1096 -3.71978 -4.94518 0.435167 -3.93357 -4.77705 -22.041 -2.0645 -5.83179 -2.02837 -2.06452 -5.8318 99.3919 -11.6903 -90.1317 42.3097 -5.6733 58.6446 75.4938 36.9721 -84.6753 143.787 60.4332 16.2772 -91.5408 -28.3282 69.7384 10.6169 15.1786 -52.6136 28.474 14.0656 -54.1257 29.1074 -18.185 -57.7078 32.7129 21.1709 24.3254 -18.8681 11.3091 -10.5042 
-261.107 91.2892 -231.067 80.4662 -46.7417 91.0865 -157.033 -9.67521 93.8181 -86.5505 15.7494 -1.72051 53.0112 -6.43466 3.40481 0.740933 -1.08393 -21.1526 175.594 38.3641 101.598 -26.4388 -13.759 4.85677 61.9947 -1.62109 -13.5905 24.0285 1.78222 1.79175 -1.29804 7.95858 -92.3402 10.8692 -3.66548 -4.31164 -0.80315 -3.85154 -4.14637 -23.2991 -2.20224 -5.21193 -3.28642 -2.20223 -5.21193 96.8512 -20.1952 -94.9978 40.7222 -0.982031 47.647 80.9088 34.5288 -92.3309 146.535 57.4004 12.426 -91.2844 -33.3289 72.0756 10.5198 18.7364 -49.7171 32.0197 15.0473 -56.5267 24.4958 -15.016 -56.4432 34.6414 20.2294 20.4088 -15.7735 11.2637 -8.94918 
-255.765 90.9483 -226.122 80.2811 -48.5683 90.4516 -150.967 -1.51696 94.237 -101.124 6.45623 0.291636 54.7758 -5.3963 2.85281 -11.03 2.48152 -31.1602 174.174 39.7218 102.277 -36.7916 -16.623 5.20571 63.5604 -2.25836 -15.1921 11.1924 7.03938 3.70829 -1.13924 8.31246 -91.9766 10.1836 -3.17161 -3.65619 -1.48824 -3.32935 -3.51321 -23.9959 -1.92739 -4.43913 -3.98323 -1.9274 -4.43913 94.066 -27.9414 -99.1797 36.8061 1.42285 33.998 22.0921 14.525 -84.7415 137.683 8.66034 -16.2907 -89.5722 -35.2379 75.7661 5.57559 24.4284 -45.2964 30.0882 12.2874 -52.2241 18.919 -13.5757 -62.558 35.9906 18.5178 14.3842 -12.948 11.4595 -3.98598 
-250.536 89.828 -222.079 77.6826 -52.4968 88.0454 -142.449 9.3301 91.2918 -114.249 0.740861 3.15639 56.5039 -4.55255 4.00338 -16.4934 4.66133 -35.3727 174.167 43.7474 103.189 -51.3351 -10.7529 3.51988 70.5598 -6.42219 -5.32919 20.544 3.41896 1.70241 -0.716099 8.37243 -91.8118 10.0795 -2.25193 -3.40516 -1.59364 -2.39953 -3.30288 -24.0981 -1.12535 -3.92375 -4.08543 -1.12535 -3.92376 92.1187 -30.7982 -102.295 33.6226 2.80374 18.4937 -84.7868 -28.4656 -91.6275 -13.3402 -13.9559 -59.1916 -88.4134 -39.9456 78.9351 -2.26867 27.0835 -35.44 34.2482 10.5536 -46.0998 11.4192 -10.0993 -70.9578 35.5944 18.6398 14.421 -10.3302 11.4956 -3.48054 
-245.992 87.5191 -220.453 59.7426 -59.0648 67.8711 -123.791 20.5705 71.8291 -126.016 -2.59604 6.26922 56.4471 -4.91303 4.86569 -18.0085 3.60811 -34.3407 178.106 53.4288 99.8636 -59.7881 -17.8493 -0.0689423 73.0297 -10.1035 -9.06898 25.3084 0.947155 2.85468 0.139461 7.57437 -91.1355 11.7166 -0.256271 -2.23227 0.0436307 -0.354228 -2.21886 -22.4752 0.426225 -2.20615 -2.46259 0.426228 -2.20615 91.2472 -31.5354 -103.758 30.7387 3.74572 0.927942 -36.2644 -12.6152 -80.902 -37.0138 6.65891 -29.8304 -87.2356 -45.3579 82.0617 -8.94868 30.0891 -20.9817 32.1943 -1.3765 -50.8832 6.92266 -6.00358 -64.1644 34.2268 18.9471 15.8749 -7.8479 11.3252 -3.2538 
-240.721 89.7784 -211.66 82.9045 -56.2175 98.8479 -142.108 33.6688 90.942 -134.491 11.9231 6.54432 53.3798 -5.31969 6.54167 -17.1869 1.34457 -31.3542 174.159 30.7162 108.937 -53.3782 -11.9536 4.09051 75.7708 -11.3493 -7.72556 28.4468 -0.748484 4.45868 0.0966686 8.91333 -92.2316 9.01097 -0.802784 -4.36305 -2.66689 -0.993869 -4.32362 -25.1436 0.544221 -4.40272 -5.13096 0.544232 -4.40271 90.5405 -33.8227 -104.358 27.8256 6.81601 -14.9755 -38.2603 -11.3067 -82.6269 -38.7427 5.54037 -28.0479 -87.4582 -41.4456 80.9236 -24.9369 26.7635 -1.55227 38.8373 -2.14413 -55.3766 -0.255966 -1.09442 -67.2789 36.9117 16.2522 9.7401 -10.1585 10.8456 1.71641 
-235.194 89.1772 -206.65 82.9429 -57.3546 98.4973 -146.303 43.3299 87.883 -139.799 19.1366 6.4963 56.8833 -3.05384 7.08545 -17.4363 -0.0501347 -29.7748 174.556 26.0295 107.107 -55.4604 -12.0141 3.32984 82.2239 -15.6536 -5.82113 29.3647 -0.596316 1.66623 0.48198 8.86248 -92.2068 9.12789 -0.0255061 -4.36847 -2.55035 -0.217574 -4.36315 -25.0304 1.28743 -4.17489 -5.01777 1.28741 -4.1749 90.3792 -30.5773 -105.805 28.6882 11.7687 -27.0539 -37.3315 -9.62166 -83.5891 -39.317 6.21307 -29.1791 -85.2768 -43.2565 84.8432 -30.827 26.1411 12.8113 41.1245 -0.909888 -58.4216 4.00881 -3.58719 -63.9938 35.8771 15.8444 13.0518 -9.83509 9.21172 -0.773279 
